<?xml version="1.0" encoding="UTF-8" standalone="no"?>
<!DOCTYPE svg PUBLIC "-//W3C//DTD SVG 1.1//EN"
 "http://www.w3.org/Graphics/SVG/1.1/DTD/svg11.dtd">
<!-- Generated by graphviz version 2.26.3 (20100126.1600)
 -->
<!-- Title: controllers_diagram Pages: 1 -->
<svg width="1052pt" height="1144pt"
 viewBox="0.00 0.00 1052.00 1144.01" xmlns="http://www.w3.org/2000/svg" xmlns:xlink="http://www.w3.org/1999/xlink">
<g id="graph1" class="graph" transform="scale(1 1) rotate(0) translate(4 1140.01)">
<title>controllers_diagram</title>
<polygon fill="white" stroke="white" points="-4,5 -4,-1140.01 1049,-1140.01 1049,5 -4,5"/>
<!-- _diagram_info -->
<g id="node1" class="node"><title>_diagram_info</title>
<text text-anchor="start" x="801" y="-222.3" font-family="Times Roman,serif" font-size="13.00">Controllers diagram</text>
<text text-anchor="start" x="801" y="-205.3" font-family="Times Roman,serif" font-size="13.00">Date: Nov 29 2013 &#45; 21:34</text>
<text text-anchor="start" x="801" y="-188.3" font-family="Times Roman,serif" font-size="13.00">Migration version: 20130528150808</text>
<text text-anchor="start" x="801" y="-171.3" font-family="Times Roman,serif" font-size="13.00">Generated by RailRoady 1.1.1</text>
<text text-anchor="start" x="801" y="-154.3" font-family="Times Roman,serif" font-size="13.00">http://railroady.prestonlee.com</text>
</g>
<!-- GenresController -->
<g id="node2" class="node"><title>GenresController</title>
<polyline fill="none" stroke="black" points="13,-597.298 124,-597.298 "/>
<path fill="none" stroke="black" d="M124,-597.298C130,-597.298 136,-603.298 136,-609.298"/>
<polyline fill="none" stroke="black" points="136,-609.298 136,-831.298 "/>
<path fill="none" stroke="black" d="M136,-831.298C136,-837.298 130,-843.298 124,-843.298"/>
<polyline fill="none" stroke="black" points="124,-843.298 13,-843.298 "/>
<path fill="none" stroke="black" d="M13,-843.298C7,-843.298 1,-837.298 1,-831.298"/>
<polyline fill="none" stroke="black" points="1,-831.298 1,-609.298 "/>
<path fill="none" stroke="black" d="M1,-609.298C1,-603.298 7,-597.298 13,-597.298"/>
<text text-anchor="middle" x="68.5" y="-826.698" font-family="Times Roman,serif" font-size="14.00">GenresController</text>
<polyline fill="none" stroke="black" points="1,-817.298 136,-817.298 "/>
<text text-anchor="start" x="9" y="-800.698" font-family="Times Roman,serif" font-size="14.00">create</text>
<text text-anchor="start" x="9" y="-782.698" font-family="Times Roman,serif" font-size="14.00">destroy</text>
<text text-anchor="start" x="9" y="-764.698" font-family="Times Roman,serif" font-size="14.00">edit</text>
<text text-anchor="start" x="9" y="-746.698" font-family="Times Roman,serif" font-size="14.00">index</text>
<text text-anchor="start" x="9" y="-728.698" font-family="Times Roman,serif" font-size="14.00">new</text>
<text text-anchor="start" x="9" y="-710.698" font-family="Times Roman,serif" font-size="14.00">show</text>
<text text-anchor="start" x="9" y="-692.698" font-family="Times Roman,serif" font-size="14.00">update</text>
<polyline fill="none" stroke="black" points="1,-683.298 136,-683.298 "/>
<polyline fill="none" stroke="black" points="1,-659.298 136,-659.298 "/>
<text text-anchor="start" x="9" y="-642.698" font-family="Times Roman,serif" font-size="14.00">_layout</text>
<text text-anchor="start" x="9" y="-624.698" font-family="Times Roman,serif" font-size="14.00">genre_params</text>
<text text-anchor="start" x="9" y="-606.698" font-family="Times Roman,serif" font-size="14.00">set_genre</text>
</g>
<!-- ArtistsController -->
<g id="node3" class="node"><title>ArtistsController</title>
<polyline fill="none" stroke="black" points="598.131,-596.836 705.131,-596.836 "/>
<path fill="none" stroke="black" d="M705.131,-596.836C711.131,-596.836 717.131,-602.836 717.131,-608.836"/>
<polyline fill="none" stroke="black" points="717.131,-608.836 717.131,-848.836 "/>
<path fill="none" stroke="black" d="M717.131,-848.836C717.131,-854.836 711.131,-860.836 705.131,-860.836"/>
<polyline fill="none" stroke="black" points="705.131,-860.836 598.131,-860.836 "/>
<path fill="none" stroke="black" d="M598.131,-860.836C592.131,-860.836 586.131,-854.836 586.131,-848.836"/>
<polyline fill="none" stroke="black" points="586.131,-848.836 586.131,-608.836 "/>
<path fill="none" stroke="black" d="M586.131,-608.836C586.131,-602.836 592.131,-596.836 598.131,-596.836"/>
<text text-anchor="middle" x="651.631" y="-844.236" font-family="Times Roman,serif" font-size="14.00">ArtistsController</text>
<polyline fill="none" stroke="black" points="586.131,-834.836 717.131,-834.836 "/>
<text text-anchor="start" x="594.131" y="-818.236" font-family="Times Roman,serif" font-size="14.00">create</text>
<text text-anchor="start" x="594.131" y="-800.236" font-family="Times Roman,serif" font-size="14.00">delete_photo</text>
<text text-anchor="start" x="594.131" y="-782.236" font-family="Times Roman,serif" font-size="14.00">destroy</text>
<text text-anchor="start" x="594.131" y="-764.236" font-family="Times Roman,serif" font-size="14.00">edit</text>
<text text-anchor="start" x="594.131" y="-746.236" font-family="Times Roman,serif" font-size="14.00">index</text>
<text text-anchor="start" x="594.131" y="-728.236" font-family="Times Roman,serif" font-size="14.00">new</text>
<text text-anchor="start" x="594.131" y="-710.236" font-family="Times Roman,serif" font-size="14.00">show</text>
<text text-anchor="start" x="594.131" y="-692.236" font-family="Times Roman,serif" font-size="14.00">update</text>
<polyline fill="none" stroke="black" points="586.131,-682.836 717.131,-682.836 "/>
<polyline fill="none" stroke="black" points="586.131,-658.836 717.131,-658.836 "/>
<text text-anchor="start" x="594.131" y="-642.236" font-family="Times Roman,serif" font-size="14.00">_layout</text>
<text text-anchor="start" x="594.131" y="-624.236" font-family="Times Roman,serif" font-size="14.00">artist_params</text>
<text text-anchor="start" x="594.131" y="-606.236" font-family="Times Roman,serif" font-size="14.00">set_artist</text>
</g>
<!-- ManagersController -->
<g id="node4" class="node"><title>ManagersController</title>
<polyline fill="none" stroke="black" points="297.51,-74.5676 425.51,-74.5676 "/>
<path fill="none" stroke="black" d="M425.51,-74.5676C431.51,-74.5676 437.51,-80.5676 437.51,-86.5676"/>
<polyline fill="none" stroke="black" points="437.51,-86.5676 437.51,-308.568 "/>
<path fill="none" stroke="black" d="M437.51,-308.568C437.51,-314.568 431.51,-320.568 425.51,-320.568"/>
<polyline fill="none" stroke="black" points="425.51,-320.568 297.51,-320.568 "/>
<path fill="none" stroke="black" d="M297.51,-320.568C291.51,-320.568 285.51,-314.568 285.51,-308.568"/>
<polyline fill="none" stroke="black" points="285.51,-308.568 285.51,-86.5676 "/>
<path fill="none" stroke="black" d="M285.51,-86.5676C285.51,-80.5676 291.51,-74.5676 297.51,-74.5676"/>
<text text-anchor="middle" x="361.51" y="-303.968" font-family="Times Roman,serif" font-size="14.00">ManagersController</text>
<polyline fill="none" stroke="black" points="285.51,-294.568 437.51,-294.568 "/>
<text text-anchor="start" x="293.51" y="-277.968" font-family="Times Roman,serif" font-size="14.00">create</text>
<text text-anchor="start" x="293.51" y="-259.968" font-family="Times Roman,serif" font-size="14.00">destroy</text>
<text text-anchor="start" x="293.51" y="-241.968" font-family="Times Roman,serif" font-size="14.00">edit</text>
<text text-anchor="start" x="293.51" y="-223.968" font-family="Times Roman,serif" font-size="14.00">index</text>
<text text-anchor="start" x="293.51" y="-205.968" font-family="Times Roman,serif" font-size="14.00">new</text>
<text text-anchor="start" x="293.51" y="-187.968" font-family="Times Roman,serif" font-size="14.00">show</text>
<text text-anchor="start" x="293.51" y="-169.968" font-family="Times Roman,serif" font-size="14.00">update</text>
<polyline fill="none" stroke="black" points="285.51,-160.568 437.51,-160.568 "/>
<polyline fill="none" stroke="black" points="285.51,-136.568 437.51,-136.568 "/>
<text text-anchor="start" x="293.51" y="-119.968" font-family="Times Roman,serif" font-size="14.00">_layout</text>
<text text-anchor="start" x="293.51" y="-101.968" font-family="Times Roman,serif" font-size="14.00">manager_params</text>
<text text-anchor="start" x="293.51" y="-83.9676" font-family="Times Roman,serif" font-size="14.00">set_manager</text>
</g>
<!-- ApplicationController -->
<g id="node5" class="node"><title>ApplicationController</title>
<polyline fill="none" stroke="black" points="281.623,-601.479 438.623,-601.479 "/>
<path fill="none" stroke="black" d="M438.623,-601.479C444.623,-601.479 450.623,-607.479 450.623,-613.479"/>
<polyline fill="none" stroke="black" points="450.623,-613.479 450.623,-709.479 "/>
<path fill="none" stroke="black" d="M450.623,-709.479C450.623,-715.479 444.623,-721.479 438.623,-721.479"/>
<polyline fill="none" stroke="black" points="438.623,-721.479 281.623,-721.479 "/>
<path fill="none" stroke="black" d="M281.623,-721.479C275.623,-721.479 269.623,-715.479 269.623,-709.479"/>
<polyline fill="none" stroke="black" points="269.623,-709.479 269.623,-613.479 "/>
<path fill="none" stroke="black" d="M269.623,-613.479C269.623,-607.479 275.623,-601.479 281.623,-601.479"/>
<text text-anchor="middle" x="360.123" y="-704.879" font-family="Times Roman,serif" font-size="14.00">ApplicationController</text>
<polyline fill="none" stroke="black" points="269.623,-695.479 450.623,-695.479 "/>
<text text-anchor="start" x="277.623" y="-678.879" font-family="Times Roman,serif" font-size="14.00">authenticate_user!</text>
<polyline fill="none" stroke="black" points="269.623,-669.479 450.623,-669.479 "/>
<polyline fill="none" stroke="black" points="269.623,-645.479 450.623,-645.479 "/>
<text text-anchor="start" x="277.623" y="-628.879" font-family="Times Roman,serif" font-size="14.00">_layout</text>
<text text-anchor="start" x="277.623" y="-610.879" font-family="Times Roman,serif" font-size="14.00">after_sign_out_path_for</text>
</g>
<!-- ApplicationController&#45;&gt;GenresController -->
<g id="edge2" class="edge"><title>ApplicationController&#45;&gt;GenresController</title>
<path fill="none" stroke="black" d="M269.45,-679.767C226.48,-688.434 176.017,-698.612 136.41,-706.601"/>
</g>
<!-- ApplicationController&#45;&gt;ArtistsController -->
<g id="edge4" class="edge"><title>ApplicationController&#45;&gt;ArtistsController</title>
<path fill="none" stroke="black" d="M450.76,-682.422C494.549,-692.54 546.122,-704.457 586.046,-713.682"/>
</g>
<!-- ApplicationController&#45;&gt;ManagersController -->
<g id="edge6" class="edge"><title>ApplicationController&#45;&gt;ManagersController</title>
<path fill="none" stroke="black" d="M360.303,-601.306C360.514,-530.577 360.871,-411.367 361.141,-320.769"/>
</g>
<!-- ConcertsController -->
<g id="node6" class="node"><title>ConcertsController</title>
<polyline fill="none" stroke="black" points="502.847,-888.51 624.847,-888.51 "/>
<path fill="none" stroke="black" d="M624.847,-888.51C630.847,-888.51 636.847,-894.51 636.847,-900.51"/>
<polyline fill="none" stroke="black" points="636.847,-900.51 636.847,-1122.51 "/>
<path fill="none" stroke="black" d="M636.847,-1122.51C636.847,-1128.51 630.847,-1134.51 624.847,-1134.51"/>
<polyline fill="none" stroke="black" points="624.847,-1134.51 502.847,-1134.51 "/>
<path fill="none" stroke="black" d="M502.847,-1134.51C496.847,-1134.51 490.847,-1128.51 490.847,-1122.51"/>
<polyline fill="none" stroke="black" points="490.847,-1122.51 490.847,-900.51 "/>
<path fill="none" stroke="black" d="M490.847,-900.51C490.847,-894.51 496.847,-888.51 502.847,-888.51"/>
<text text-anchor="middle" x="563.847" y="-1117.91" font-family="Times Roman,serif" font-size="14.00">ConcertsController</text>
<polyline fill="none" stroke="black" points="490.847,-1108.51 636.847,-1108.51 "/>
<text text-anchor="start" x="498.847" y="-1091.91" font-family="Times Roman,serif" font-size="14.00">create</text>
<text text-anchor="start" x="498.847" y="-1073.91" font-family="Times Roman,serif" font-size="14.00">destroy</text>
<text text-anchor="start" x="498.847" y="-1055.91" font-family="Times Roman,serif" font-size="14.00">edit</text>
<text text-anchor="start" x="498.847" y="-1037.91" font-family="Times Roman,serif" font-size="14.00">index</text>
<text text-anchor="start" x="498.847" y="-1019.91" font-family="Times Roman,serif" font-size="14.00">new</text>
<text text-anchor="start" x="498.847" y="-1001.91" font-family="Times Roman,serif" font-size="14.00">show</text>
<text text-anchor="start" x="498.847" y="-983.91" font-family="Times Roman,serif" font-size="14.00">update</text>
<polyline fill="none" stroke="black" points="490.847,-974.51 636.847,-974.51 "/>
<polyline fill="none" stroke="black" points="490.847,-950.51 636.847,-950.51 "/>
<text text-anchor="start" x="498.847" y="-933.91" font-family="Times Roman,serif" font-size="14.00">_layout</text>
<text text-anchor="start" x="498.847" y="-915.91" font-family="Times Roman,serif" font-size="14.00">concert_params</text>
<text text-anchor="start" x="498.847" y="-897.91" font-family="Times Roman,serif" font-size="14.00">set_concert</text>
</g>
<!-- ApplicationController&#45;&gt;ConcertsController -->
<g id="edge8" class="edge"><title>ApplicationController&#45;&gt;ConcertsController</title>
<path fill="none" stroke="black" d="M395.145,-721.651C421.766,-767.391 459.292,-831.866 492.194,-888.398"/>
</g>
<!-- AlbumsController -->
<g id="node7" class="node"><title>AlbumsController</title>
<polyline fill="none" stroke="black" points="95.9418,-885.519 207.942,-885.519 "/>
<path fill="none" stroke="black" d="M207.942,-885.519C213.942,-885.519 219.942,-891.519 219.942,-897.519"/>
<polyline fill="none" stroke="black" points="219.942,-897.519 219.942,-1119.52 "/>
<path fill="none" stroke="black" d="M219.942,-1119.52C219.942,-1125.52 213.942,-1131.52 207.942,-1131.52"/>
<polyline fill="none" stroke="black" points="207.942,-1131.52 95.9418,-1131.52 "/>
<path fill="none" stroke="black" d="M95.9418,-1131.52C89.9418,-1131.52 83.9418,-1125.52 83.9418,-1119.52"/>
<polyline fill="none" stroke="black" points="83.9418,-1119.52 83.9418,-897.519 "/>
<path fill="none" stroke="black" d="M83.9418,-897.519C83.9418,-891.519 89.9418,-885.519 95.9418,-885.519"/>
<text text-anchor="middle" x="151.942" y="-1114.92" font-family="Times Roman,serif" font-size="14.00">AlbumsController</text>
<polyline fill="none" stroke="black" points="83.9418,-1105.52 219.942,-1105.52 "/>
<text text-anchor="start" x="91.9418" y="-1088.92" font-family="Times Roman,serif" font-size="14.00">create</text>
<text text-anchor="start" x="91.9418" y="-1070.92" font-family="Times Roman,serif" font-size="14.00">destroy</text>
<text text-anchor="start" x="91.9418" y="-1052.92" font-family="Times Roman,serif" font-size="14.00">edit</text>
<text text-anchor="start" x="91.9418" y="-1034.92" font-family="Times Roman,serif" font-size="14.00">index</text>
<text text-anchor="start" x="91.9418" y="-1016.92" font-family="Times Roman,serif" font-size="14.00">new</text>
<text text-anchor="start" x="91.9418" y="-998.919" font-family="Times Roman,serif" font-size="14.00">show</text>
<text text-anchor="start" x="91.9418" y="-980.919" font-family="Times Roman,serif" font-size="14.00">update</text>
<polyline fill="none" stroke="black" points="83.9418,-971.519 219.942,-971.519 "/>
<polyline fill="none" stroke="black" points="83.9418,-947.519 219.942,-947.519 "/>
<text text-anchor="start" x="91.9418" y="-930.919" font-family="Times Roman,serif" font-size="14.00">_layout</text>
<text text-anchor="start" x="91.9418" y="-912.919" font-family="Times Roman,serif" font-size="14.00">album_params</text>
<text text-anchor="start" x="91.9418" y="-894.919" font-family="Times Roman,serif" font-size="14.00">set_album</text>
</g>
<!-- ApplicationController&#45;&gt;AlbumsController -->
<g id="edge10" class="edge"><title>ApplicationController&#45;&gt;AlbumsController</title>
<path fill="none" stroke="black" d="M324.099,-721.532C295.528,-769.159 254.775,-837.094 220.092,-894.913"/>
</g>
<!-- HomeController -->
<g id="node8" class="node"><title>HomeController</title>
<polyline fill="none" stroke="black" points="64.4046,-385.711 165.405,-385.711 "/>
<path fill="none" stroke="black" d="M165.405,-385.711C171.405,-385.711 177.405,-391.711 177.405,-397.711"/>
<polyline fill="none" stroke="black" points="177.405,-397.711 177.405,-475.711 "/>
<path fill="none" stroke="black" d="M177.405,-475.711C177.405,-481.711 171.405,-487.711 165.405,-487.711"/>
<polyline fill="none" stroke="black" points="165.405,-487.711 64.4046,-487.711 "/>
<path fill="none" stroke="black" d="M64.4046,-487.711C58.4046,-487.711 52.4046,-481.711 52.4046,-475.711"/>
<polyline fill="none" stroke="black" points="52.4046,-475.711 52.4046,-397.711 "/>
<path fill="none" stroke="black" d="M52.4046,-397.711C52.4046,-391.711 58.4046,-385.711 64.4046,-385.711"/>
<text text-anchor="middle" x="114.905" y="-471.111" font-family="Times Roman,serif" font-size="14.00">HomeController</text>
<polyline fill="none" stroke="black" points="52.4046,-461.711 177.405,-461.711 "/>
<text text-anchor="start" x="60.4046" y="-445.111" font-family="Times Roman,serif" font-size="14.00">index</text>
<polyline fill="none" stroke="black" points="52.4046,-435.711 177.405,-435.711 "/>
<polyline fill="none" stroke="black" points="52.4046,-411.711 177.405,-411.711 "/>
<text text-anchor="start" x="60.4046" y="-395.111" font-family="Times Roman,serif" font-size="14.00">_layout</text>
</g>
<!-- ApplicationController&#45;&gt;HomeController -->
<g id="edge12" class="edge"><title>ApplicationController&#45;&gt;HomeController</title>
<path fill="none" stroke="black" d="M294.409,-601.245C255.821,-565.875 207.572,-521.65 170.817,-487.961"/>
</g>
<!-- LabelsController -->
<g id="node9" class="node"><title>LabelsController</title>
<polyline fill="none" stroke="black" points="554.251,-318.938 659.251,-318.938 "/>
<path fill="none" stroke="black" d="M659.251,-318.938C665.251,-318.938 671.251,-324.938 671.251,-330.938"/>
<polyline fill="none" stroke="black" points="671.251,-330.938 671.251,-552.938 "/>
<path fill="none" stroke="black" d="M671.251,-552.938C671.251,-558.938 665.251,-564.938 659.251,-564.938"/>
<polyline fill="none" stroke="black" points="659.251,-564.938 554.251,-564.938 "/>
<path fill="none" stroke="black" d="M554.251,-564.938C548.251,-564.938 542.251,-558.938 542.251,-552.938"/>
<polyline fill="none" stroke="black" points="542.251,-552.938 542.251,-330.938 "/>
<path fill="none" stroke="black" d="M542.251,-330.938C542.251,-324.938 548.251,-318.938 554.251,-318.938"/>
<text text-anchor="middle" x="606.751" y="-548.338" font-family="Times Roman,serif" font-size="14.00">LabelsController</text>
<polyline fill="none" stroke="black" points="542.251,-538.938 671.251,-538.938 "/>
<text text-anchor="start" x="550.251" y="-522.338" font-family="Times Roman,serif" font-size="14.00">create</text>
<text text-anchor="start" x="550.251" y="-504.338" font-family="Times Roman,serif" font-size="14.00">destroy</text>
<text text-anchor="start" x="550.251" y="-486.338" font-family="Times Roman,serif" font-size="14.00">edit</text>
<text text-anchor="start" x="550.251" y="-468.338" font-family="Times Roman,serif" font-size="14.00">index</text>
<text text-anchor="start" x="550.251" y="-450.338" font-family="Times Roman,serif" font-size="14.00">new</text>
<text text-anchor="start" x="550.251" y="-432.338" font-family="Times Roman,serif" font-size="14.00">show</text>
<text text-anchor="start" x="550.251" y="-414.338" font-family="Times Roman,serif" font-size="14.00">update</text>
<polyline fill="none" stroke="black" points="542.251,-404.938 671.251,-404.938 "/>
<polyline fill="none" stroke="black" points="542.251,-380.938 671.251,-380.938 "/>
<text text-anchor="start" x="550.251" y="-364.338" font-family="Times Roman,serif" font-size="14.00">_layout</text>
<text text-anchor="start" x="550.251" y="-346.338" font-family="Times Roman,serif" font-size="14.00">label_params</text>
<text text-anchor="start" x="550.251" y="-328.338" font-family="Times Roman,serif" font-size="14.00">set_label</text>
</g>
<!-- ApplicationController&#45;&gt;LabelsController -->
<g id="edge14" class="edge"><title>ApplicationController&#45;&gt;LabelsController</title>
<path fill="none" stroke="black" d="M427.842,-601.198C463.492,-569.463 506.982,-530.749 542.157,-499.437"/>
</g>
<!-- SongsController -->
<g id="node10" class="node"><title>SongsController</title>
<polyline fill="none" stroke="black" points="37.9453,-1.5 140.945,-1.5 "/>
<path fill="none" stroke="black" d="M140.945,-1.5C146.945,-1.5 152.945,-7.5 152.945,-13.5"/>
<polyline fill="none" stroke="black" points="152.945,-13.5 152.945,-235.5 "/>
<path fill="none" stroke="black" d="M152.945,-235.5C152.945,-241.5 146.945,-247.5 140.945,-247.5"/>
<polyline fill="none" stroke="black" points="140.945,-247.5 37.9453,-247.5 "/>
<path fill="none" stroke="black" d="M37.9453,-247.5C31.9453,-247.5 25.9453,-241.5 25.9453,-235.5"/>
<polyline fill="none" stroke="black" points="25.9453,-235.5 25.9453,-13.5 "/>
<path fill="none" stroke="black" d="M25.9453,-13.5C25.9453,-7.5 31.9453,-1.5 37.9453,-1.5"/>
<text text-anchor="middle" x="89.4453" y="-230.9" font-family="Times Roman,serif" font-size="14.00">SongsController</text>
<polyline fill="none" stroke="black" points="25.9453,-221.5 152.945,-221.5 "/>
<text text-anchor="start" x="33.9453" y="-204.9" font-family="Times Roman,serif" font-size="14.00">create</text>
<text text-anchor="start" x="33.9453" y="-186.9" font-family="Times Roman,serif" font-size="14.00">destroy</text>
<text text-anchor="start" x="33.9453" y="-168.9" font-family="Times Roman,serif" font-size="14.00">edit</text>
<text text-anchor="start" x="33.9453" y="-150.9" font-family="Times Roman,serif" font-size="14.00">index</text>
<text text-anchor="start" x="33.9453" y="-132.9" font-family="Times Roman,serif" font-size="14.00">new</text>
<text text-anchor="start" x="33.9453" y="-114.9" font-family="Times Roman,serif" font-size="14.00">show</text>
<text text-anchor="start" x="33.9453" y="-96.9" font-family="Times Roman,serif" font-size="14.00">update</text>
<polyline fill="none" stroke="black" points="25.9453,-87.5 152.945,-87.5 "/>
<polyline fill="none" stroke="black" points="25.9453,-63.5 152.945,-63.5 "/>
<text text-anchor="start" x="33.9453" y="-46.9" font-family="Times Roman,serif" font-size="14.00">_layout</text>
<text text-anchor="start" x="33.9453" y="-28.9" font-family="Times Roman,serif" font-size="14.00">set_song</text>
<text text-anchor="start" x="33.9453" y="-10.9" font-family="Times Roman,serif" font-size="14.00">song_params</text>
</g>
<!-- ApplicationController&#45;&gt;SongsController -->
<g id="edge16" class="edge"><title>ApplicationController&#45;&gt;SongsController</title>
<path fill="none" stroke="black" d="M329.861,-601.444C286.923,-516.262 207.343,-358.389 151.539,-247.684"/>
</g>
<!-- ProducersController -->
<g id="node11" class="node"><title>ProducersController</title>
<polyline fill="none" stroke="black" points="566.921,-3.28191 696.921,-3.28191 "/>
<path fill="none" stroke="black" d="M696.921,-3.28191C702.921,-3.28191 708.921,-9.28191 708.921,-15.2819"/>
<polyline fill="none" stroke="black" points="708.921,-15.2819 708.921,-237.282 "/>
<path fill="none" stroke="black" d="M708.921,-237.282C708.921,-243.282 702.921,-249.282 696.921,-249.282"/>
<polyline fill="none" stroke="black" points="696.921,-249.282 566.921,-249.282 "/>
<path fill="none" stroke="black" d="M566.921,-249.282C560.921,-249.282 554.921,-243.282 554.921,-237.282"/>
<polyline fill="none" stroke="black" points="554.921,-237.282 554.921,-15.2819 "/>
<path fill="none" stroke="black" d="M554.921,-15.2819C554.921,-9.28191 560.921,-3.28191 566.921,-3.28191"/>
<text text-anchor="middle" x="631.921" y="-232.682" font-family="Times Roman,serif" font-size="14.00">ProducersController</text>
<polyline fill="none" stroke="black" points="554.921,-223.282 708.921,-223.282 "/>
<text text-anchor="start" x="562.921" y="-206.682" font-family="Times Roman,serif" font-size="14.00">create</text>
<text text-anchor="start" x="562.921" y="-188.682" font-family="Times Roman,serif" font-size="14.00">destroy</text>
<text text-anchor="start" x="562.921" y="-170.682" font-family="Times Roman,serif" font-size="14.00">edit</text>
<text text-anchor="start" x="562.921" y="-152.682" font-family="Times Roman,serif" font-size="14.00">index</text>
<text text-anchor="start" x="562.921" y="-134.682" font-family="Times Roman,serif" font-size="14.00">new</text>
<text text-anchor="start" x="562.921" y="-116.682" font-family="Times Roman,serif" font-size="14.00">show</text>
<text text-anchor="start" x="562.921" y="-98.6819" font-family="Times Roman,serif" font-size="14.00">update</text>
<polyline fill="none" stroke="black" points="554.921,-89.2819 708.921,-89.2819 "/>
<polyline fill="none" stroke="black" points="554.921,-65.2819 708.921,-65.2819 "/>
<text text-anchor="start" x="562.921" y="-48.6819" font-family="Times Roman,serif" font-size="14.00">_layout</text>
<text text-anchor="start" x="562.921" y="-30.6819" font-family="Times Roman,serif" font-size="14.00">producer_params</text>
<text text-anchor="start" x="562.921" y="-12.6819" font-family="Times Roman,serif" font-size="14.00">set_producer</text>
</g>
<!-- ApplicationController&#45;&gt;ProducersController -->
<g id="edge18" class="edge"><title>ApplicationController&#45;&gt;ProducersController</title>
<path fill="none" stroke="black" d="M390.642,-601.384C433.736,-516.527 513.399,-359.663 569.367,-249.457"/>
</g>
</g>
</svg>
