<?xml version="1.0" encoding="UTF-8" standalone="no"?>
<!DOCTYPE svg PUBLIC "-//W3C//DTD SVG 1.1//EN"
 "http://www.w3.org/Graphics/SVG/1.1/DTD/svg11.dtd">
<!-- Generated by graphviz version 2.26.3 (20100126.1600)
 -->
<!-- Title: models_diagram Pages: 1 -->
<svg width="1135pt" height="894pt"
 viewBox="0.00 0.00 1134.66 894.00" xmlns="http://www.w3.org/2000/svg" xmlns:xlink="http://www.w3.org/1999/xlink">
<g id="graph1" class="graph" transform="scale(1 1) rotate(0) translate(4 890)">
<title>models_diagram</title>
<polygon fill="white" stroke="white" points="-4,5 -4,-890 1131.66,-890 1131.66,5 -4,5"/>
<!-- _diagram_info -->
<g id="node1" class="node"><title>_diagram_info</title>
<text text-anchor="start" x="250" y="-869.8" font-family="Times Roman,serif" font-size="13.00">Models diagram</text>
<text text-anchor="start" x="250" y="-852.8" font-family="Times Roman,serif" font-size="13.00">Date: Nov 29 2013 &#45; 21:34</text>
<text text-anchor="start" x="250" y="-835.8" font-family="Times Roman,serif" font-size="13.00">Migration version: 20130528150808</text>
<text text-anchor="start" x="250" y="-818.8" font-family="Times Roman,serif" font-size="13.00">Generated by RailRoady 1.1.1</text>
<text text-anchor="start" x="250" y="-801.8" font-family="Times Roman,serif" font-size="13.00">http://railroady.prestonlee.com</text>
</g>
<!-- Producer -->
<g id="node2" class="node"><title>Producer</title>
<polyline fill="none" stroke="black" points="11.5,-10 152.5,-10 "/>
<path fill="none" stroke="black" d="M152.5,-10C158.5,-10 164.5,-16 164.5,-22"/>
<polyline fill="none" stroke="black" points="164.5,-22 164.5,-122 "/>
<path fill="none" stroke="black" d="M164.5,-122C164.5,-128 158.5,-134 152.5,-134"/>
<polyline fill="none" stroke="black" points="152.5,-134 11.5,-134 "/>
<path fill="none" stroke="black" d="M11.5,-134C5.5,-134 -0.5,-128 -0.5,-122"/>
<polyline fill="none" stroke="black" points="-0.5,-122 -0.5,-22 "/>
<path fill="none" stroke="black" d="M-0.5,-22C-0.5,-16 5.5,-10 11.5,-10"/>
<text text-anchor="middle" x="82" y="-117.4" font-family="Times Roman,serif" font-size="14.00">Producer</text>
<polyline fill="none" stroke="black" points="-0.5,-108 164.5,-108 "/>
<text text-anchor="start" x="7.5" y="-91.4" font-family="Times Roman,serif" font-size="14.00">id :integer</text>
<text text-anchor="start" x="7.5" y="-73.4" font-family="Times Roman,serif" font-size="14.00">name :string</text>
<text text-anchor="start" x="7.5" y="-55.4" font-family="Times Roman,serif" font-size="14.00">year_started :string</text>
<text text-anchor="start" x="7.5" y="-37.4" font-family="Times Roman,serif" font-size="14.00">created_at :datetime</text>
<text text-anchor="start" x="7.5" y="-19.4" font-family="Times Roman,serif" font-size="14.00">updated_at :datetime</text>
</g>
<!-- Album -->
<g id="node3" class="node"><title>Album</title>
<polyline fill="none" stroke="black" points="172,-181 358,-181 "/>
<path fill="none" stroke="black" d="M358,-181C364,-181 370,-187 370,-193"/>
<polyline fill="none" stroke="black" points="370,-193 370,-437 "/>
<path fill="none" stroke="black" d="M370,-437C370,-443 364,-449 358,-449"/>
<polyline fill="none" stroke="black" points="358,-449 172,-449 "/>
<path fill="none" stroke="black" d="M172,-449C166,-449 160,-443 160,-437"/>
<polyline fill="none" stroke="black" points="160,-437 160,-193 "/>
<path fill="none" stroke="black" d="M160,-193C160,-187 166,-181 172,-181"/>
<text text-anchor="middle" x="265" y="-432.4" font-family="Times Roman,serif" font-size="14.00">Album</text>
<polyline fill="none" stroke="black" points="160,-423 370,-423 "/>
<text text-anchor="start" x="168" y="-406.4" font-family="Times Roman,serif" font-size="14.00">id :integer</text>
<text text-anchor="start" x="168" y="-388.4" font-family="Times Roman,serif" font-size="14.00">artist_id :integer</text>
<text text-anchor="start" x="168" y="-370.4" font-family="Times Roman,serif" font-size="14.00">album_title :string</text>
<text text-anchor="start" x="168" y="-352.4" font-family="Times Roman,serif" font-size="14.00">genre_id :integer</text>
<text text-anchor="start" x="168" y="-334.4" font-family="Times Roman,serif" font-size="14.00">producer_id :integer</text>
<text text-anchor="start" x="168" y="-316.4" font-family="Times Roman,serif" font-size="14.00">date_released :date</text>
<text text-anchor="start" x="168" y="-298.4" font-family="Times Roman,serif" font-size="14.00">label_id :integer</text>
<text text-anchor="start" x="168" y="-280.4" font-family="Times Roman,serif" font-size="14.00">created_at :datetime</text>
<text text-anchor="start" x="168" y="-262.4" font-family="Times Roman,serif" font-size="14.00">updated_at :datetime</text>
<text text-anchor="start" x="168" y="-244.4" font-family="Times Roman,serif" font-size="14.00">cover_file_name :string</text>
<text text-anchor="start" x="168" y="-226.4" font-family="Times Roman,serif" font-size="14.00">cover_content_type :string</text>
<text text-anchor="start" x="168" y="-208.4" font-family="Times Roman,serif" font-size="14.00">cover_file_size :integer</text>
<text text-anchor="start" x="168" y="-190.4" font-family="Times Roman,serif" font-size="14.00">cover_updated_at :datetime</text>
</g>
<!-- Album&#45;&gt;Producer -->
<g id="edge6" class="edge"><title>Album&#45;&gt;Producer</title>
<path fill="none" stroke="#c11d31" d="M159.005,-174.253C150.275,-162.661 141.726,-151.308 133.686,-140.632"/>
<ellipse fill="none" stroke="#c11d31" cx="161.459" cy="-177.511" rx="4.00002" ry="4.00002"/>
<ellipse fill="#c11d31" stroke="#c11d31" cx="131.155" cy="-137.271" rx="4.00002" ry="4.00002"/>
</g>
<!-- Genre -->
<g id="node5" class="node"><title>Genre</title>
<polyline fill="none" stroke="black" points="194.5,-19 335.5,-19 "/>
<path fill="none" stroke="black" d="M335.5,-19C341.5,-19 347.5,-25 347.5,-31"/>
<polyline fill="none" stroke="black" points="347.5,-31 347.5,-113 "/>
<path fill="none" stroke="black" d="M347.5,-113C347.5,-119 341.5,-125 335.5,-125"/>
<polyline fill="none" stroke="black" points="335.5,-125 194.5,-125 "/>
<path fill="none" stroke="black" d="M194.5,-125C188.5,-125 182.5,-119 182.5,-113"/>
<polyline fill="none" stroke="black" points="182.5,-113 182.5,-31 "/>
<path fill="none" stroke="black" d="M182.5,-31C182.5,-25 188.5,-19 194.5,-19"/>
<text text-anchor="middle" x="265" y="-108.4" font-family="Times Roman,serif" font-size="14.00">Genre</text>
<polyline fill="none" stroke="black" points="182.5,-99 347.5,-99 "/>
<text text-anchor="start" x="190.5" y="-82.4" font-family="Times Roman,serif" font-size="14.00">id :integer</text>
<text text-anchor="start" x="190.5" y="-64.4" font-family="Times Roman,serif" font-size="14.00">name :string</text>
<text text-anchor="start" x="190.5" y="-46.4" font-family="Times Roman,serif" font-size="14.00">created_at :datetime</text>
<text text-anchor="start" x="190.5" y="-28.4" font-family="Times Roman,serif" font-size="14.00">updated_at :datetime</text>
</g>
<!-- Album&#45;&gt;Genre -->
<g id="edge4" class="edge"><title>Album&#45;&gt;Genre</title>
<path fill="none" stroke="#8050a4" d="M265,-172.45C265,-158.849 265,-145.61 265,-133.445"/>
<ellipse fill="none" stroke="#8050a4" cx="265" cy="-176.707" rx="4" ry="4"/>
<ellipse fill="#8050a4" stroke="#8050a4" cx="265" cy="-129.203" rx="4" ry="4"/>
</g>
<!-- Song -->
<g id="node7" class="node"><title>Song</title>
<polyline fill="none" stroke="black" points="487.5,-1 628.5,-1 "/>
<path fill="none" stroke="black" d="M628.5,-1C634.5,-1 640.5,-7 640.5,-13"/>
<polyline fill="none" stroke="black" points="640.5,-13 640.5,-131 "/>
<path fill="none" stroke="black" d="M640.5,-131C640.5,-137 634.5,-143 628.5,-143"/>
<polyline fill="none" stroke="black" points="628.5,-143 487.5,-143 "/>
<path fill="none" stroke="black" d="M487.5,-143C481.5,-143 475.5,-137 475.5,-131"/>
<polyline fill="none" stroke="black" points="475.5,-131 475.5,-13 "/>
<path fill="none" stroke="black" d="M475.5,-13C475.5,-7 481.5,-1 487.5,-1"/>
<text text-anchor="middle" x="558" y="-126.4" font-family="Times Roman,serif" font-size="14.00">Song</text>
<polyline fill="none" stroke="black" points="475.5,-117 640.5,-117 "/>
<text text-anchor="start" x="483.5" y="-100.4" font-family="Times Roman,serif" font-size="14.00">id :integer</text>
<text text-anchor="start" x="483.5" y="-82.4" font-family="Times Roman,serif" font-size="14.00">album_id :integer</text>
<text text-anchor="start" x="483.5" y="-64.4" font-family="Times Roman,serif" font-size="14.00">song_title :string</text>
<text text-anchor="start" x="483.5" y="-46.4" font-family="Times Roman,serif" font-size="14.00">song_duration :string</text>
<text text-anchor="start" x="483.5" y="-28.4" font-family="Times Roman,serif" font-size="14.00">created_at :datetime</text>
<text text-anchor="start" x="483.5" y="-10.4" font-family="Times Roman,serif" font-size="14.00">updated_at :datetime</text>
</g>
<!-- Album&#45;&gt;Song -->
<g id="edge10" class="edge"><title>Album&#45;&gt;Song</title>
<path fill="none" stroke="#4b3cd4" d="M375.985,-185.219C377.984,-183.446 379.99,-181.705 382,-180 407.642,-158.247 438.12,-137.935 466.449,-120.93"/>
<ellipse fill="none" stroke="#4b3cd4" cx="372.974" cy="-187.942" rx="4.00002" ry="4.00002"/>
<polygon fill="#4b3cd4" stroke="#4b3cd4" points="466.564,-120.862 477.46,-119.631 470.864,-118.311 475.164,-115.76 475.164,-115.76 475.164,-115.76 470.864,-118.311 472.869,-111.89 466.564,-120.862 466.564,-120.862"/>
</g>
<!-- Label -->
<g id="node11" class="node"><title>Label</title>
<polyline fill="none" stroke="black" points="890.5,-10 1031.5,-10 "/>
<path fill="none" stroke="black" d="M1031.5,-10C1037.5,-10 1043.5,-16 1043.5,-22"/>
<polyline fill="none" stroke="black" points="1043.5,-22 1043.5,-122 "/>
<path fill="none" stroke="black" d="M1043.5,-122C1043.5,-128 1037.5,-134 1031.5,-134"/>
<polyline fill="none" stroke="black" points="1031.5,-134 890.5,-134 "/>
<path fill="none" stroke="black" d="M890.5,-134C884.5,-134 878.5,-128 878.5,-122"/>
<polyline fill="none" stroke="black" points="878.5,-122 878.5,-22 "/>
<path fill="none" stroke="black" d="M878.5,-22C878.5,-16 884.5,-10 890.5,-10"/>
<text text-anchor="middle" x="961" y="-117.4" font-family="Times Roman,serif" font-size="14.00">Label</text>
<polyline fill="none" stroke="black" points="878.5,-108 1043.5,-108 "/>
<text text-anchor="start" x="886.5" y="-91.4" font-family="Times Roman,serif" font-size="14.00">id :integer</text>
<text text-anchor="start" x="886.5" y="-73.4" font-family="Times Roman,serif" font-size="14.00">name :string</text>
<text text-anchor="start" x="886.5" y="-55.4" font-family="Times Roman,serif" font-size="14.00">date_started :date</text>
<text text-anchor="start" x="886.5" y="-37.4" font-family="Times Roman,serif" font-size="14.00">created_at :datetime</text>
<text text-anchor="start" x="886.5" y="-19.4" font-family="Times Roman,serif" font-size="14.00">updated_at :datetime</text>
</g>
<!-- Album&#45;&gt;Label -->
<g id="edge8" class="edge"><title>Album&#45;&gt;Label</title>
<path fill="none" stroke="#f52c6a" d="M377.214,-182.698C378.797,-181.768 380.393,-180.868 382,-180 487.347,-123.081 531.203,-165.486 649,-144 724.127,-130.297 808.469,-110.568 870.502,-95.2253"/>
<ellipse fill="none" stroke="#f52c6a" cx="373.752" cy="-184.848" rx="4.00002" ry="4.00002"/>
<ellipse fill="#f52c6a" stroke="#f52c6a" cx="874.454" cy="-94.2449" rx="4.00001" ry="4.00001"/>
</g>
<!-- User -->
<g id="node4" class="node"><title>User</title>
<polyline fill="none" stroke="black" points="422,-487 652,-487 "/>
<path fill="none" stroke="black" d="M652,-487C658,-487 664,-493 664,-499"/>
<polyline fill="none" stroke="black" points="664,-499 664,-743 "/>
<path fill="none" stroke="black" d="M664,-743C664,-749 658,-755 652,-755"/>
<polyline fill="none" stroke="black" points="652,-755 422,-755 "/>
<path fill="none" stroke="black" d="M422,-755C416,-755 410,-749 410,-743"/>
<polyline fill="none" stroke="black" points="410,-743 410,-499 "/>
<path fill="none" stroke="black" d="M410,-499C410,-493 416,-487 422,-487"/>
<text text-anchor="middle" x="537" y="-738.4" font-family="Times Roman,serif" font-size="14.00">User</text>
<polyline fill="none" stroke="black" points="410,-729 664,-729 "/>
<text text-anchor="start" x="418" y="-712.4" font-family="Times Roman,serif" font-size="14.00">id :integer</text>
<text text-anchor="start" x="418" y="-694.4" font-family="Times Roman,serif" font-size="14.00">email :string</text>
<text text-anchor="start" x="418" y="-676.4" font-family="Times Roman,serif" font-size="14.00">encrypted_password :string</text>
<text text-anchor="start" x="418" y="-658.4" font-family="Times Roman,serif" font-size="14.00">reset_password_token :string</text>
<text text-anchor="start" x="418" y="-640.4" font-family="Times Roman,serif" font-size="14.00">reset_password_sent_at :datetime</text>
<text text-anchor="start" x="418" y="-622.4" font-family="Times Roman,serif" font-size="14.00">remember_created_at :datetime</text>
<text text-anchor="start" x="418" y="-604.4" font-family="Times Roman,serif" font-size="14.00">sign_in_count :integer</text>
<text text-anchor="start" x="418" y="-586.4" font-family="Times Roman,serif" font-size="14.00">current_sign_in_at :datetime</text>
<text text-anchor="start" x="418" y="-568.4" font-family="Times Roman,serif" font-size="14.00">last_sign_in_at :datetime</text>
<text text-anchor="start" x="418" y="-550.4" font-family="Times Roman,serif" font-size="14.00">current_sign_in_ip :string</text>
<text text-anchor="start" x="418" y="-532.4" font-family="Times Roman,serif" font-size="14.00">last_sign_in_ip :string</text>
<text text-anchor="start" x="418" y="-514.4" font-family="Times Roman,serif" font-size="14.00">created_at :datetime</text>
<text text-anchor="start" x="418" y="-496.4" font-family="Times Roman,serif" font-size="14.00">updated_at :datetime</text>
</g>
<!-- Manager -->
<g id="node6" class="node"><title>Manager</title>
<polyline fill="none" stroke="black" points="402.5,-253 543.5,-253 "/>
<path fill="none" stroke="black" d="M543.5,-253C549.5,-253 555.5,-259 555.5,-265"/>
<polyline fill="none" stroke="black" points="555.5,-265 555.5,-365 "/>
<path fill="none" stroke="black" d="M555.5,-365C555.5,-371 549.5,-377 543.5,-377"/>
<polyline fill="none" stroke="black" points="543.5,-377 402.5,-377 "/>
<path fill="none" stroke="black" d="M402.5,-377C396.5,-377 390.5,-371 390.5,-365"/>
<polyline fill="none" stroke="black" points="390.5,-365 390.5,-265 "/>
<path fill="none" stroke="black" d="M390.5,-265C390.5,-259 396.5,-253 402.5,-253"/>
<text text-anchor="middle" x="473" y="-360.4" font-family="Times Roman,serif" font-size="14.00">Manager</text>
<polyline fill="none" stroke="black" points="390.5,-351 555.5,-351 "/>
<text text-anchor="start" x="398.5" y="-334.4" font-family="Times Roman,serif" font-size="14.00">id :integer</text>
<text text-anchor="start" x="398.5" y="-316.4" font-family="Times Roman,serif" font-size="14.00">name :string</text>
<text text-anchor="start" x="398.5" y="-298.4" font-family="Times Roman,serif" font-size="14.00">artist_id :integer</text>
<text text-anchor="start" x="398.5" y="-280.4" font-family="Times Roman,serif" font-size="14.00">created_at :datetime</text>
<text text-anchor="start" x="398.5" y="-262.4" font-family="Times Roman,serif" font-size="14.00">updated_at :datetime</text>
</g>
<!-- Admin -->
<g id="node8" class="node"><title>Admin</title>
<polyline fill="none" stroke="black" points="808,-487 1038,-487 "/>
<path fill="none" stroke="black" d="M1038,-487C1044,-487 1050,-493 1050,-499"/>
<polyline fill="none" stroke="black" points="1050,-499 1050,-743 "/>
<path fill="none" stroke="black" d="M1050,-743C1050,-749 1044,-755 1038,-755"/>
<polyline fill="none" stroke="black" points="1038,-755 808,-755 "/>
<path fill="none" stroke="black" d="M808,-755C802,-755 796,-749 796,-743"/>
<polyline fill="none" stroke="black" points="796,-743 796,-499 "/>
<path fill="none" stroke="black" d="M796,-499C796,-493 802,-487 808,-487"/>
<text text-anchor="middle" x="923" y="-738.4" font-family="Times Roman,serif" font-size="14.00">Admin</text>
<polyline fill="none" stroke="black" points="796,-729 1050,-729 "/>
<text text-anchor="start" x="804" y="-712.4" font-family="Times Roman,serif" font-size="14.00">id :integer</text>
<text text-anchor="start" x="804" y="-694.4" font-family="Times Roman,serif" font-size="14.00">email :string</text>
<text text-anchor="start" x="804" y="-676.4" font-family="Times Roman,serif" font-size="14.00">encrypted_password :string</text>
<text text-anchor="start" x="804" y="-658.4" font-family="Times Roman,serif" font-size="14.00">reset_password_token :string</text>
<text text-anchor="start" x="804" y="-640.4" font-family="Times Roman,serif" font-size="14.00">reset_password_sent_at :datetime</text>
<text text-anchor="start" x="804" y="-622.4" font-family="Times Roman,serif" font-size="14.00">remember_created_at :datetime</text>
<text text-anchor="start" x="804" y="-604.4" font-family="Times Roman,serif" font-size="14.00">sign_in_count :integer</text>
<text text-anchor="start" x="804" y="-586.4" font-family="Times Roman,serif" font-size="14.00">current_sign_in_at :datetime</text>
<text text-anchor="start" x="804" y="-568.4" font-family="Times Roman,serif" font-size="14.00">last_sign_in_at :datetime</text>
<text text-anchor="start" x="804" y="-550.4" font-family="Times Roman,serif" font-size="14.00">current_sign_in_ip :string</text>
<text text-anchor="start" x="804" y="-532.4" font-family="Times Roman,serif" font-size="14.00">last_sign_in_ip :string</text>
<text text-anchor="start" x="804" y="-514.4" font-family="Times Roman,serif" font-size="14.00">created_at :datetime</text>
<text text-anchor="start" x="804" y="-496.4" font-family="Times Roman,serif" font-size="14.00">updated_at :datetime</text>
</g>
<!-- Artist -->
<g id="node9" class="node"><title>Artist</title>
<polyline fill="none" stroke="black" points="192,-514 380,-514 "/>
<path fill="none" stroke="black" d="M380,-514C386,-514 392,-520 392,-526"/>
<polyline fill="none" stroke="black" points="392,-526 392,-716 "/>
<path fill="none" stroke="black" d="M392,-716C392,-722 386,-728 380,-728"/>
<polyline fill="none" stroke="black" points="380,-728 192,-728 "/>
<path fill="none" stroke="black" d="M192,-728C186,-728 180,-722 180,-716"/>
<polyline fill="none" stroke="black" points="180,-716 180,-526 "/>
<path fill="none" stroke="black" d="M180,-526C180,-520 186,-514 192,-514"/>
<text text-anchor="middle" x="286" y="-711.4" font-family="Times Roman,serif" font-size="14.00">Artist</text>
<polyline fill="none" stroke="black" points="180,-702 392,-702 "/>
<text text-anchor="start" x="188" y="-685.4" font-family="Times Roman,serif" font-size="14.00">id :integer</text>
<text text-anchor="start" x="188" y="-667.4" font-family="Times Roman,serif" font-size="14.00">name :string</text>
<text text-anchor="start" x="188" y="-649.4" font-family="Times Roman,serif" font-size="14.00">date_started :date</text>
<text text-anchor="start" x="188" y="-631.4" font-family="Times Roman,serif" font-size="14.00">n_of_participants :integer</text>
<text text-anchor="start" x="188" y="-613.4" font-family="Times Roman,serif" font-size="14.00">created_at :datetime</text>
<text text-anchor="start" x="188" y="-595.4" font-family="Times Roman,serif" font-size="14.00">updated_at :datetime</text>
<text text-anchor="start" x="188" y="-577.4" font-family="Times Roman,serif" font-size="14.00">photo_file_name :string</text>
<text text-anchor="start" x="188" y="-559.4" font-family="Times Roman,serif" font-size="14.00">photo_content_type :string</text>
<text text-anchor="start" x="188" y="-541.4" font-family="Times Roman,serif" font-size="14.00">photo_file_size :integer</text>
<text text-anchor="start" x="188" y="-523.4" font-family="Times Roman,serif" font-size="14.00">photo_updated_at :datetime</text>
</g>
<!-- Artist&#45;&gt;Album -->
<g id="edge28" class="edge"><title>Artist&#45;&gt;Album</title>
<path fill="none" stroke="#0ee385" d="M278.078,-505.57C277.041,-490.457 275.968,-474.822 274.903,-459.308"/>
<ellipse fill="none" stroke="#0ee385" cx="278.381" cy="-509.985" rx="4" ry="4"/>
<polygon fill="#0ee385" stroke="#0ee385" points="274.89,-459.113 278.695,-448.828 274.548,-454.124 274.205,-449.136 274.205,-449.136 274.205,-449.136 274.548,-454.124 269.716,-449.444 274.89,-459.113 274.89,-459.113"/>
</g>
<!-- Artist&#45;&gt;Manager -->
<g id="edge24" class="edge"><title>Artist&#45;&gt;Manager</title>
<path fill="none" stroke="#d6a68e" d="M355.683,-506.974C380.827,-465.829 408.433,-420.655 430.547,-384.469"/>
<ellipse fill="none" stroke="#d6a68e" cx="353.489" cy="-510.563" rx="4.00002" ry="4.00002"/>
<ellipse fill="#d6a68e" stroke="#d6a68e" cx="432.808" cy="-380.769" rx="4.00002" ry="4.00002"/>
</g>
<!-- Concert -->
<g id="node10" class="node"><title>Concert</title>
<polyline fill="none" stroke="black" points="586.5,-253 727.5,-253 "/>
<path fill="none" stroke="black" d="M727.5,-253C733.5,-253 739.5,-259 739.5,-265"/>
<polyline fill="none" stroke="black" points="739.5,-265 739.5,-365 "/>
<path fill="none" stroke="black" d="M739.5,-365C739.5,-371 733.5,-377 727.5,-377"/>
<polyline fill="none" stroke="black" points="727.5,-377 586.5,-377 "/>
<path fill="none" stroke="black" d="M586.5,-377C580.5,-377 574.5,-371 574.5,-365"/>
<polyline fill="none" stroke="black" points="574.5,-365 574.5,-265 "/>
<path fill="none" stroke="black" d="M574.5,-265C574.5,-259 580.5,-253 586.5,-253"/>
<text text-anchor="middle" x="657" y="-360.4" font-family="Times Roman,serif" font-size="14.00">Concert</text>
<polyline fill="none" stroke="black" points="574.5,-351 739.5,-351 "/>
<text text-anchor="start" x="582.5" y="-334.4" font-family="Times Roman,serif" font-size="14.00">id :integer</text>
<text text-anchor="start" x="582.5" y="-316.4" font-family="Times Roman,serif" font-size="14.00">location :string</text>
<text text-anchor="start" x="582.5" y="-298.4" font-family="Times Roman,serif" font-size="14.00">date_held :date</text>
<text text-anchor="start" x="582.5" y="-280.4" font-family="Times Roman,serif" font-size="14.00">created_at :datetime</text>
<text text-anchor="start" x="582.5" y="-262.4" font-family="Times Roman,serif" font-size="14.00">updated_at :datetime</text>
</g>
<!-- Artist&#45;&gt;Concert -->
<g id="edge26" class="edge"><title>Artist&#45;&gt;Concert</title>
<path fill="none" stroke="#5334e4" d="M372.415,-507.087C381.444,-499.2 391.002,-492.011 401,-486 464.584,-447.773 502.454,-491.429 564,-450 587.866,-433.935 607.385,-409.508 622.269,-385.827"/>
<polygon fill="#5334e4" stroke="#5334e4" points="372.358,-507.139 361.931,-510.535 368.657,-510.502 364.957,-513.865 364.957,-513.865 364.957,-513.865 368.657,-510.502 367.984,-517.195 372.358,-507.139 372.358,-507.139"/>
<polygon fill="#5334e4" stroke="#5334e4" points="622.347,-385.698 631.387,-379.491 624.944,-381.426 627.542,-377.153 627.542,-377.153 627.542,-377.153 624.944,-381.426 623.697,-374.816 622.347,-385.698 622.347,-385.698"/>
</g>
<!-- ActiveRecord::Base -->
<g id="node12" class="node"><title>ActiveRecord::Base</title>
<ellipse fill="none" stroke="black" cx="614" cy="-839" rx="104.151" ry="18.3848"/>
<text text-anchor="middle" x="614" y="-835.4" font-family="Times Roman,serif" font-size="14.00">ActiveRecord::Base</text>
</g>
<!-- ActiveRecord::Base&#45;&gt;Producer -->
<g id="edge2" class="edge"><title>ActiveRecord::Base&#45;&gt;Producer</title>
<path fill="none" stroke="black" d="M579.311,-821.34C557.419,-811.018 528.226,-798.732 501,-792 415.221,-770.789 165.675,-820.239 105,-756 -56.9484,-584.539 18.4214,-267.735 60.4492,-134.07"/>
</g>
<!-- ActiveRecord::Base&#45;&gt;Album -->
<g id="edge12" class="edge"><title>ActiveRecord::Base&#45;&gt;Album</title>
<path fill="none" stroke="black" d="M579.268,-821.512C557.359,-811.255 528.165,-798.977 501,-792 429.551,-773.649 220.253,-810.918 171,-756 96.5203,-672.953 134.083,-545.718 182.031,-449.22"/>
</g>
<!-- ActiveRecord::Base&#45;&gt;User -->
<g id="edge14" class="edge"><title>ActiveRecord::Base&#45;&gt;User</title>
<path fill="none" stroke="black" d="M607.435,-820.413C601.925,-804.814 593.509,-780.987 584.389,-755.166"/>
</g>
<!-- ActiveRecord::Base&#45;&gt;Genre -->
<g id="edge16" class="edge"><title>ActiveRecord::Base&#45;&gt;Genre</title>
<path fill="none" stroke="black" d="M579.298,-821.393C557.401,-811.091 528.208,-798.808 501,-792 420.217,-771.786 183.984,-817.647 128,-756 84.9395,-708.583 123.503,-237.848 151,-180 160.773,-159.44 176.299,-140.802 192.785,-125.02"/>
</g>
<!-- ActiveRecord::Base&#45;&gt;Manager -->
<g id="edge18" class="edge"><title>ActiveRecord::Base&#45;&gt;Manager</title>
<path fill="none" stroke="black" d="M632.107,-820.773C646.317,-805.095 664.99,-781.095 673,-756 691.245,-698.841 708.014,-534.724 673,-486 643.719,-445.255 606.063,-480.208 566,-450 540.662,-430.895 519.754,-402.823 504.223,-377.218"/>
</g>
<!-- ActiveRecord::Base&#45;&gt;Song -->
<g id="edge20" class="edge"><title>ActiveRecord::Base&#45;&gt;Song</title>
<path fill="none" stroke="black" d="M655.521,-821.887C682.665,-808.315 716.11,-786.525 733,-756 763.995,-699.981 780.197,-235.337 748,-180 724.72,-139.99 680.478,-113.586 640.54,-96.9072"/>
</g>
<!-- ActiveRecord::Base&#45;&gt;Admin -->
<g id="edge22" class="edge"><title>ActiveRecord::Base&#45;&gt;Admin</title>
<path fill="none" stroke="black" d="M657.064,-822.051C692.244,-807.214 742.438,-783.725 782,-756 786.579,-752.791 791.154,-749.434 795.706,-745.963"/>
</g>
<!-- ActiveRecord::Base&#45;&gt;Artist -->
<g id="edge30" class="edge"><title>ActiveRecord::Base&#45;&gt;Artist</title>
<path fill="none" stroke="black" d="M574.184,-821.884C552.625,-812.757 525.466,-801.486 501,-792 456.957,-774.925 439.842,-782.882 401,-756 389.354,-747.94 378.181,-738.418 367.686,-728.219"/>
</g>
<!-- ActiveRecord::Base&#45;&gt;Concert -->
<g id="edge32" class="edge"><title>ActiveRecord::Base&#45;&gt;Concert</title>
<path fill="none" stroke="black" d="M644.646,-821.191C666.26,-806.713 693.502,-784.108 706,-756 761.867,-630.356 716.003,-465.521 683.114,-377.234"/>
</g>
<!-- ActiveRecord::Base&#45;&gt;Label -->
<g id="edge34" class="edge"><title>ActiveRecord::Base&#45;&gt;Label</title>
<path fill="none" stroke="black" d="M715.172,-834.671C832.743,-827.269 1016.16,-807.573 1059,-756 1210.4,-573.755 1069.86,-265.6 997.731,-134.28"/>
</g>
</g>
</svg>
