<?xml version="1.0" encoding="UTF-8" standalone="no"?>
<!DOCTYPE svg PUBLIC "-//W3C//DTD SVG 1.1//EN"
 "http://www.w3.org/Graphics/SVG/1.1/DTD/svg11.dtd">
<!-- Generated by graphviz version 2.26.3 (20100126.1600)
 -->
<!-- Title: models_diagram Pages: 1 -->
<svg width="629pt" height="324pt"
 viewBox="0.00 0.00 628.78 324.00" xmlns="http://www.w3.org/2000/svg" xmlns:xlink="http://www.w3.org/1999/xlink">
<g id="graph1" class="graph" transform="scale(1 1) rotate(0) translate(4 320)">
<title>models_diagram</title>
<polygon fill="white" stroke="white" points="-4,5 -4,-320 625.777,-320 625.777,5 -4,5"/>
<!-- _diagram_info -->
<g id="node1" class="node"><title>_diagram_info</title>
<text text-anchor="start" x="8" y="-299.8" font-family="Times Roman,serif" font-size="13.00">Models diagram</text>
<text text-anchor="start" x="8" y="-282.8" font-family="Times Roman,serif" font-size="13.00">Date: Nov 29 2013 &#45; 21:34</text>
<text text-anchor="start" x="8" y="-265.8" font-family="Times Roman,serif" font-size="13.00">Migration version: 20130528150808</text>
<text text-anchor="start" x="8" y="-248.8" font-family="Times Roman,serif" font-size="13.00">Generated by RailRoady 1.1.1</text>
<text text-anchor="start" x="8" y="-231.8" font-family="Times Roman,serif" font-size="13.00">http://railroady.prestonlee.com</text>
</g>
<!-- Producer -->
<g id="node2" class="node"><title>Producer</title>
<ellipse fill="none" stroke="black" cx="71" cy="-19" rx="55.1543" ry="18.3848"/>
<text text-anchor="middle" x="71" y="-15.4" font-family="Times Roman,serif" font-size="14.00">Producer</text>
</g>
<!-- Album -->
<g id="node3" class="node"><title>Album</title>
<ellipse fill="none" stroke="black" cx="183" cy="-93" rx="41.9273" ry="18.3848"/>
<text text-anchor="middle" x="183" y="-89.4" font-family="Times Roman,serif" font-size="14.00">Album</text>
</g>
<!-- Album&#45;&gt;Producer -->
<g id="edge6" class="edge"><title>Album&#45;&gt;Producer</title>
<path fill="none" stroke="#99ef8c" d="M152.703,-72.982C137.297,-62.8034 118.577,-50.435 102.945,-40.1067"/>
<ellipse fill="none" stroke="#99ef8c" cx="156.184" cy="-75.2821" rx="4.00002" ry="4.00002"/>
<ellipse fill="#99ef8c" stroke="#99ef8c" cx="99.3405" cy="-37.725" rx="4.00002" ry="4.00002"/>
</g>
<!-- Genre -->
<g id="node5" class="node"><title>Genre</title>
<ellipse fill="none" stroke="black" cx="185" cy="-19" rx="41.2167" ry="18.3848"/>
<text text-anchor="middle" x="185" y="-15.4" font-family="Times Roman,serif" font-size="14.00">Genre</text>
</g>
<!-- Album&#45;&gt;Genre -->
<g id="edge4" class="edge"><title>Album&#45;&gt;Genre</title>
<path fill="none" stroke="#07eef4" d="M183.721,-66.309C183.902,-59.6354 184.095,-52.4756 184.276,-45.7969"/>
<ellipse fill="none" stroke="#07eef4" cx="183.613" cy="-70.3281" rx="4" ry="4"/>
<ellipse fill="#07eef4" stroke="#07eef4" cx="184.387" cy="-41.6659" rx="4" ry="4"/>
</g>
<!-- Song -->
<g id="node7" class="node"><title>Song</title>
<ellipse fill="none" stroke="black" cx="341" cy="-19" rx="36.0624" ry="18.3848"/>
<text text-anchor="middle" x="341" y="-15.4" font-family="Times Roman,serif" font-size="14.00">Song</text>
</g>
<!-- Album&#45;&gt;Song -->
<g id="edge10" class="edge"><title>Album&#45;&gt;Song</title>
<path fill="none" stroke="#98bc94" d="M219.466,-75.9209C245.148,-63.8925 279.375,-47.8622 304.962,-35.8786"/>
<ellipse fill="none" stroke="#98bc94" cx="215.602" cy="-77.7307" rx="4.00002" ry="4.00002"/>
<polygon fill="#98bc94" stroke="#98bc94" points="305.253,-35.7422 316.218,-35.576 309.781,-33.6215 314.309,-31.5008 314.309,-31.5008 314.309,-31.5008 309.781,-33.6215 312.401,-27.4256 305.253,-35.7422 305.253,-35.7422"/>
</g>
<!-- Label -->
<g id="node11" class="node"><title>Label</title>
<ellipse fill="none" stroke="black" cx="554" cy="-19" rx="36.977" ry="18.3848"/>
<text text-anchor="middle" x="554" y="-15.4" font-family="Times Roman,serif" font-size="14.00">Label</text>
</g>
<!-- Album&#45;&gt;Label -->
<g id="edge8" class="edge"><title>Album&#45;&gt;Label</title>
<path fill="none" stroke="#2df0a8" d="M221.775,-77.7064C225.869,-76.347 229.997,-75.0794 234,-74 330.622,-47.9428 447.124,-31.5758 509.468,-23.9902"/>
<ellipse fill="none" stroke="#2df0a8" cx="217.766" cy="-79.0974" rx="4.00001" ry="4.00001"/>
<ellipse fill="#2df0a8" stroke="#2df0a8" cx="513.559" cy="-23.4986" rx="4.00001" ry="4.00001"/>
</g>
<!-- User -->
<g id="node4" class="node"><title>User</title>
<ellipse fill="none" stroke="black" cx="341" cy="-167" rx="33.9411" ry="18.3848"/>
<text text-anchor="middle" x="341" y="-163.4" font-family="Times Roman,serif" font-size="14.00">User</text>
</g>
<!-- Manager -->
<g id="node6" class="node"><title>Manager</title>
<ellipse fill="none" stroke="black" cx="297" cy="-93" rx="53.9477" ry="18.3848"/>
<text text-anchor="middle" x="297" y="-89.4" font-family="Times Roman,serif" font-size="14.00">Manager</text>
</g>
<!-- Admin -->
<g id="node8" class="node"><title>Admin</title>
<ellipse fill="none" stroke="black" cx="558" cy="-167" rx="41.9273" ry="18.3848"/>
<text text-anchor="middle" x="558" y="-163.4" font-family="Times Roman,serif" font-size="14.00">Admin</text>
</g>
<!-- Artist -->
<g id="node9" class="node"><title>Artist</title>
<ellipse fill="none" stroke="black" cx="250" cy="-167" rx="38.8909" ry="18.3848"/>
<text text-anchor="middle" x="250" y="-163.4" font-family="Times Roman,serif" font-size="14.00">Artist</text>
</g>
<!-- Artist&#45;&gt;Album -->
<g id="edge28" class="edge"><title>Artist&#45;&gt;Album</title>
<path fill="none" stroke="#2d66e0" d="M228.919,-143.717C221.502,-135.525 213.14,-126.288 205.603,-117.964"/>
<ellipse fill="none" stroke="#2d66e0" cx="231.776" cy="-146.872" rx="4.00002" ry="4.00002"/>
<polygon fill="#2d66e0" stroke="#2d66e0" points="205.399,-117.739 202.023,-107.306 202.043,-114.033 198.687,-110.326 198.687,-110.326 198.687,-110.326 202.043,-114.033 195.352,-113.347 205.399,-117.739 205.399,-117.739"/>
</g>
<!-- Artist&#45;&gt;Manager -->
<g id="edge24" class="edge"><title>Artist&#45;&gt;Manager</title>
<path fill="none" stroke="#f4c039" d="M265.67,-142.327C270.606,-134.557 276.061,-125.967 281.018,-118.163"/>
<ellipse fill="none" stroke="#f4c039" cx="263.522" cy="-145.71" rx="4.00002" ry="4.00002"/>
<ellipse fill="#f4c039" stroke="#f4c039" cx="283.256" cy="-114.639" rx="4.00002" ry="4.00002"/>
</g>
<!-- Concert -->
<g id="node10" class="node"><title>Concert</title>
<ellipse fill="none" stroke="black" cx="419" cy="-93" rx="50.2046" ry="18.3848"/>
<text text-anchor="middle" x="419" y="-89.4" font-family="Times Roman,serif" font-size="14.00">Concert</text>
</g>
<!-- Artist&#45;&gt;Concert -->
<g id="edge26" class="edge"><title>Artist&#45;&gt;Concert</title>
<path fill="none" stroke="#8a5719" d="M287.896,-150.406C314.487,-138.763 350.038,-123.196 377.411,-111.21"/>
<polygon fill="#8a5719" stroke="#8a5719" points="287.829,-150.436 276.864,-150.325 283.249,-152.441 278.669,-154.447 278.669,-154.447 278.669,-154.447 283.249,-152.441 280.474,-158.569 287.829,-150.436 287.829,-150.436"/>
<polygon fill="#8a5719" stroke="#8a5719" points="377.564,-111.144 388.529,-111.255 382.144,-109.138 386.724,-107.133 386.724,-107.133 386.724,-107.133 382.144,-109.138 384.919,-103.01 377.564,-111.144 377.564,-111.144"/>
</g>
<!-- ActiveRecord::Base -->
<g id="node12" class="node"><title>ActiveRecord::Base</title>
<ellipse fill="none" stroke="black" cx="372" cy="-269" rx="104.151" ry="18.3848"/>
<text text-anchor="middle" x="372" y="-265.4" font-family="Times Roman,serif" font-size="14.00">ActiveRecord::Base</text>
</g>
<!-- ActiveRecord::Base&#45;&gt;Producer -->
<g id="edge2" class="edge"><title>ActiveRecord::Base&#45;&gt;Producer</title>
<path fill="none" stroke="black" d="M333.423,-251.799C311.762,-242.434 284.114,-230.963 259,-222 206.558,-203.283 180.202,-223.454 139,-186 94.525,-145.571 78.5125,-71.8479 73.2859,-37.5133"/>
</g>
<!-- ActiveRecord::Base&#45;&gt;Album -->
<g id="edge12" class="edge"><title>ActiveRecord::Base&#45;&gt;Album</title>
<path fill="none" stroke="black" d="M332.309,-251.844C284.846,-230.99 210.674,-197.197 202,-186 185.349,-164.504 182.269,-132.083 182.184,-111.751"/>
</g>
<!-- ActiveRecord::Base&#45;&gt;User -->
<g id="edge14" class="edge"><title>ActiveRecord::Base&#45;&gt;User</title>
<path fill="none" stroke="black" d="M366.314,-250.292C360.721,-231.888 352.231,-203.953 346.65,-185.59"/>
</g>
<!-- ActiveRecord::Base&#45;&gt;Genre -->
<g id="edge16" class="edge"><title>ActiveRecord::Base&#45;&gt;Genre</title>
<path fill="none" stroke="black" d="M331.092,-251.815C277.106,-229.036 188.138,-191.11 182,-186 140.104,-151.123 111.606,-124.554 132,-74 138.35,-58.2591 151.6,-44.5091 163.263,-34.6943"/>
</g>
<!-- ActiveRecord::Base&#45;&gt;Manager -->
<g id="edge18" class="edge"><title>ActiveRecord::Base&#45;&gt;Manager</title>
<path fill="none" stroke="black" d="M380.035,-250.47C389.533,-225.53 401.927,-180.542 384,-148 373.395,-128.749 352.896,-115.3 334.46,-106.522"/>
</g>
<!-- ActiveRecord::Base&#45;&gt;Song -->
<g id="edge20" class="edge"><title>ActiveRecord::Base&#45;&gt;Song</title>
<path fill="none" stroke="black" d="M395.337,-250.851C437.831,-215.568 519.762,-135.768 478,-74 455.462,-40.6653 409.041,-27.5315 376.507,-22.3585"/>
</g>
<!-- ActiveRecord::Base&#45;&gt;Admin -->
<g id="edge22" class="edge"><title>ActiveRecord::Base&#45;&gt;Admin</title>
<path fill="none" stroke="black" d="M404.399,-251.233C440.515,-231.427 498.23,-199.777 531.678,-181.435"/>
</g>
<!-- ActiveRecord::Base&#45;&gt;Artist -->
<g id="edge30" class="edge"><title>ActiveRecord::Base&#45;&gt;Artist</title>
<path fill="none" stroke="black" d="M350.189,-250.764C327.297,-231.625 291.636,-201.811 269.608,-183.393"/>
</g>
<!-- ActiveRecord::Base&#45;&gt;Concert -->
<g id="edge32" class="edge"><title>ActiveRecord::Base&#45;&gt;Concert</title>
<path fill="none" stroke="black" d="M385.3,-250.639C396.141,-234.502 410.657,-209.924 417,-186 423.663,-160.867 422.736,-130.563 421.131,-111.533"/>
</g>
<!-- ActiveRecord::Base&#45;&gt;Label -->
<g id="edge34" class="edge"><title>ActiveRecord::Base&#45;&gt;Label</title>
<path fill="none" stroke="black" d="M438.475,-254.739C501.288,-239.757 588.822,-214.447 609,-186 642.908,-138.197 595.017,-68.1611 568.952,-36.1307"/>
</g>
</g>
</svg>
